<svg height="480pt" viewBox="-31 0 479 480" width="480pt" xmlns="http://www.w3.org/2000/svg"><path d="m336.5 104c0 4.417969 3.582031 8 8 8s8-3.582031 8-8c.015625-13.25 10.75-23.984375 24-24 4.417969 0 8-3.582031 8-8s-3.582031-8-8-8c-13.25-.015625-23.984375-10.75-24-24 0-4.417969-3.582031-8-8-8s-8 3.582031-8 8c-.015625 13.25-10.75 23.984375-24 24-4.417969 0-8 3.582031-8 8s3.582031 8 8 8c13.25.015625 23.984375 10.75 24 24zm8-40.246094c2.332031 3.132813 5.113281 5.914063 8.246094 8.246094-3.132813 2.332031-5.914063 5.113281-8.246094 8.246094-2.332031-3.132813-5.113281-5.914063-8.246094-8.246094 3.132813-2.332031 5.914063-5.113281 8.246094-8.246094zm0 0"/><path d="m88.5 392c-13.25-.015625-23.984375-10.75-24-24 0-4.417969-3.582031-8-8-8s-8 3.582031-8 8c-.015625 13.25-10.75 23.984375-24 24-4.417969 0-8 3.582031-8 8s3.582031 8 8 8c13.25.015625 23.984375 10.75 24 24 0 4.417969 3.582031 8 8 8s8-3.582031 8-8c.015625-13.25 10.75-23.984375 24-24 4.417969 0 8-3.582031 8-8s-3.582031-8-8-8zm-32 16.246094c-2.332031-3.132813-5.113281-5.914063-8.246094-8.246094 3.132813-2.332031 5.914063-5.113281 8.246094-8.246094 2.332031 3.132813 5.113281 5.914063 8.246094 8.246094-3.132813 2.332031-5.914063 5.113281-8.246094 8.246094zm0 0"/><path d="m88.5 0h-32c-4.417969 0-8 3.582031-8 8v104c-26.46875 0-48 17.945312-48 40s21.53125 40 48 40 48-17.945312 48-40v-144c0-4.417969-3.582031-8-8-8zm-8 152c0 13.234375-14.355469 24-32 24s-32-10.765625-32-24 14.355469-24 32-24c2.25 0 4.5.183594 6.722656.542969 2.316406.359375 4.671875-.300781 6.464844-1.808594 1.785156-1.519531 2.8125-3.746094 2.8125-6.089844v-104.644531h16zm0 0"/><path d="m288.5 440c0 22.054688 21.53125 40 48 40s48-17.945312 48-40v-104h24c4.417969 0 8-3.582031 8-8v-32c0-4.417969-3.582031-8-8-8h-64c-4.417969 0-8 3.582031-8 8v104c-26.46875 0-48 17.945312-48 40zm48-24c2.25 0 4.5.183594 6.722656.542969 2.316406.355469 4.671875-.300781 6.464844-1.808594 1.785156-1.519531 2.8125-3.746094 2.8125-6.089844v-104.644531h48v16h-24c-4.417969 0-8 3.582031-8 8v112c0 13.234375-14.355469 24-32 24s-32-10.765625-32-24 14.355469-24 32-24zm0 0"/><path d="m128.5 168v104c-26.46875 0-48 17.945312-48 40s21.53125 40 48 40 48-17.945312 48-40v-104h80v64c-26.46875 0-48 17.945312-48 40s21.53125 40 48 40 48-17.945312 48-40v-144c0-4.417969-3.582031-8-8-8h-160c-4.417969 0-8 3.582031-8 8zm16 112.644531v-104.644531h144v136c0 13.234375-14.355469 24-32 24s-32-10.765625-32-24 14.355469-24 32-24c2.25 0 4.5.183594 6.722656.542969 2.316406.375 4.675782-.285157 6.460938-1.808594 1.789062-1.519531 2.816406-3.746094 2.816406-6.089844v-80.644531c0-4.417969-3.582031-8-8-8h-96c-4.417969 0-8 3.582031-8 8v112c0 13.234375-14.355469 24-32 24s-32-10.765625-32-24 14.355469-24 32-24c2.25 0 4.5.183594 6.722656.542969 2.316406.363281 4.671875-.296875 6.464844-1.808594 1.785156-1.519531 2.8125-3.746094 2.8125-6.089844zm0 0"/><path d="m216.5 128v-32c0-4.417969-3.582031-8-8-8s-8 3.582031-8 8v32c0 4.417969 3.582031 8 8 8s8-3.582031 8-8zm0 0"/><path d="m176.507812 136c2.773438 0 5.34375-1.4375 6.800782-3.796875 1.457031-2.359375 1.585937-5.300781.347656-7.78125l-16-32c-1.273438-2.5625-3.820312-4.25-6.679688-4.425781-2.855468-.171875-5.589843 1.191406-7.164062 3.582031-1.578125 2.390625-1.753906 5.441406-.46875 8l16 32c1.355469 2.714844 4.128906 4.425781 7.164062 4.421875zm0 0"/><path d="m240.492188 136c3.035156.003906 5.808593-1.707031 7.164062-4.421875l16-32c1.285156-2.558594 1.109375-5.609375-.46875-8-1.574219-2.390625-4.308594-3.753906-7.164062-3.582031-2.859376.175781-5.40625 1.863281-6.679688 4.425781l-16 32c-1.238281 2.480469-1.109375 5.421875.347656 7.78125 1.457032 2.359375 4.027344 3.796875 6.800782 3.796875zm0 0"/></svg>