<svg id="Layer_1" height="512" viewBox="0 0 128 128" width="512" xmlns="http://www.w3.org/2000/svg" data-name="Layer 1"><path d="m104.49 101.413a10.484 10.484 0 1 0 -17.184 0 17.854 17.854 0 0 0 -7.357 7.845 17.855 17.855 0 0 0 -7.357-7.845 10.484 10.484 0 1 0 -17.184 0 17.856 17.856 0 0 0 -7.357 7.845 17.856 17.856 0 0 0 -7.357-7.845 10.484 10.484 0 1 0 -17.184 0 17.828 17.828 0 0 0 -9.11 15.466 1.75 1.75 0 0 0 1.75 1.75h95.694a1.75 1.75 0 0 0 1.75-1.75 17.831 17.831 0 0 0 -9.104-15.466zm-8.59-12.974a6.984 6.984 0 1 1 -6.984 6.984 6.992 6.992 0 0 1 6.984-6.984zm-31.9 0a6.984 6.984 0 1 1 -6.984 6.984 6.992 6.992 0 0 1 6.984-6.984zm-31.9 0a6.984 6.984 0 1 1 -6.984 6.984 6.992 6.992 0 0 1 6.984-6.984zm-14.087 26.69a14.321 14.321 0 0 1 8.087-11.122 10.426 10.426 0 0 0 12 0 14.324 14.324 0 0 1 8.088 11.122zm31.9 0a14.323 14.323 0 0 1 8.087-11.122 10.426 10.426 0 0 0 12 0 14.324 14.324 0 0 1 8.088 11.122zm31.9 0a14.322 14.322 0 0 1 8.087-11.122 10.426 10.426 0 0 0 12 0 14.324 14.324 0 0 1 8.088 11.122z"/><path d="m44.648 67.076a17.832 17.832 0 0 0 -9.106-15.466 10.484 10.484 0 1 0 -17.185 0 17.83 17.83 0 0 0 -9.107 15.466 1.75 1.75 0 0 0 1.75 1.75h31.9a1.75 1.75 0 0 0 1.748-1.75zm-17.7-28.439a6.984 6.984 0 1 1 -6.984 6.984 6.992 6.992 0 0 1 6.985-6.984zm-14.088 26.689a14.322 14.322 0 0 1 8.087-11.121 10.426 10.426 0 0 0 12 0 14.324 14.324 0 0 1 8.087 11.121z"/><path d="m117 9.371h-71.5a1.75 1.75 0 0 0 -1.75 1.75v40.006a1.75 1.75 0 0 0 1.75 1.75h27.6l-8.93 20.375a1.75 1.75 0 0 0 1.6 2.452h5.433a1.75 1.75 0 0 0 1.6-1.048l8.4-19.168 8.4 19.168a1.75 1.75 0 0 0 1.6 1.048h5.433a1.75 1.75 0 0 0 1.6-2.452l-8.92-20.375h27.684a1.75 1.75 0 0 0 1.75-1.75v-40.006a1.75 1.75 0 0 0 -1.75-1.75zm-46.938 62.829h-1.611l8.467-19.327h1.611zm23.9 0h-1.612l-8.467-19.323h1.611zm21.288-22.823h-68v-36.506h68z"/><path d="m64.887 42.5a11.371 11.371 0 1 0 -11.371-11.376 11.384 11.384 0 0 0 11.371 11.376zm0-19.242a7.871 7.871 0 1 1 -7.871 7.871 7.88 7.88 0 0 1 7.871-7.876z"/><path d="m83.125 25.756h23.875a1.75 1.75 0 0 0 0-3.5h-23.875a1.75 1.75 0 0 0 0 3.5z"/><path d="m83.125 32.874h23.875a1.75 1.75 0 0 0 0-3.5h-23.875a1.75 1.75 0 1 0 0 3.5z"/><path d="m83.125 39.992h23.875a1.75 1.75 0 0 0 0-3.5h-23.875a1.75 1.75 0 0 0 0 3.5z"/></svg>